<svg width="9" height="14" viewBox="0 0 9 14" fill="none" xmlns="http://www.w3.org/2000/svg">
<path d="M8.35802 7.32862L1.53015 13.7425C1.46671 13.8021 1.39085 13.8499 1.30691 13.8834C1.22297 13.9168 1.13259 13.9351 1.04093 13.9373C0.949263 13.9395 0.858113 13.9254 0.772682 13.896C0.68725 13.8666 0.609209 13.8224 0.543015 13.7659C0.476821 13.7094 0.42377 13.6417 0.386891 13.5667C0.350013 13.4916 0.330029 13.4108 0.32808 13.3287C0.326131 13.2466 0.342256 13.1649 0.375533 13.0882C0.408811 13.0115 0.45859 12.9414 0.522028 12.8818L6.8677 6.92169L0.246376 1.26941C0.112692 1.15528 0.0353776 0.998008 0.0314417 0.832203C0.0275059 0.666397 0.0972706 0.505636 0.225389 0.385287C0.353508 0.264937 0.529486 0.194857 0.714608 0.190462C0.899731 0.186068 1.07884 0.247719 1.21252 0.361854L8.33703 6.4445C8.40327 6.50098 8.45636 6.56867 8.49327 6.64369C8.53018 6.71871 8.55018 6.79959 8.55212 6.8817C8.55407 6.96381 8.53793 7.04555 8.50463 7.12223C8.47132 7.19892 8.4215 7.26905 8.35802 7.32862Z" fill="white"/>
</svg>
