<svg width="9" height="14" viewBox="0 0 9 14" fill="none" xmlns="http://www.w3.org/2000/svg">
<path d="M0.37283 6.64355L7.18605 0.214152C7.24935 0.154416 7.3251 0.106368 7.40896 0.0727483C7.49283 0.0391291 7.58317 0.0205967 7.67483 0.0182117C7.76648 0.0158268 7.85767 0.0296359 7.94317 0.0588483C8.02866 0.0880606 8.10681 0.132105 8.17313 0.188469C8.23945 0.244831 8.29266 0.312408 8.32971 0.38734C8.36676 0.462272 8.38692 0.543093 8.38906 0.625187C8.3912 0.707281 8.37526 0.789041 8.34216 0.865799C8.30905 0.942556 8.25943 1.01281 8.19613 1.07254L1.86407 7.04708L8.49827 12.6842C8.63222 12.7981 8.70989 12.9552 8.7142 13.121C8.71852 13.2868 8.64912 13.4477 8.52127 13.5683C8.39343 13.689 8.21761 13.7594 8.0325 13.7643C7.84739 13.7691 7.66814 13.7078 7.5342 13.594L0.395834 7.52763C0.329465 7.47129 0.27622 7.40372 0.239141 7.32878C0.202062 7.25385 0.181879 7.17302 0.179743 7.09091C0.177606 7.0088 0.193559 6.92703 0.22669 6.85027C0.259822 6.77351 0.309481 6.70326 0.37283 6.64355Z" fill="white"/>
</svg>
